<!--<svg id="Github" xmlns="http://www.w3.org/2000/svg" width="48" height="48" viewBox="0 0 48 48">
  <path id="Path_10" data-name="Path 10" d="M24,0C10.747,0,0,11.017,0,24.608a24.566,24.566,0,0,0,16.413,23.35c1.2.228,1.64-.534,1.64-1.184,0-.587-.022-2.525-.033-4.581-6.677,1.489-8.086-2.9-8.086-2.9-1.092-2.844-2.665-3.6-2.665-3.6-2.178-1.527.164-1.5.164-1.5a5.06,5.06,0,0,1,3.679,2.536c2.141,3.762,5.615,2.674,6.984,2.046a5.291,5.291,0,0,1,1.524-3.291C14.29,34.861,8.686,32.751,8.686,23.322a9.658,9.658,0,0,1,2.473-6.6,9.05,9.05,0,0,1,.233-6.512s2.015-.661,6.6,2.522a22.224,22.224,0,0,1,12.02,0c4.581-3.184,6.593-2.522,6.593-2.522a9.039,9.039,0,0,1,.235,6.512,9.639,9.639,0,0,1,2.47,6.6c0,9.451-5.614,11.532-10.959,12.142a5.962,5.962,0,0,1,1.628,4.557c0,3.292-.028,5.942-.028,6.753,0,.655.432,1.422,1.649,1.181A24.563,24.563,0,0,0,48,24.608C48,11.017,37.255,0,24,0Z" fill="#161514"/>
  <path id="Path_11" data-name="Path 11" d="M9.161,35.162c-.053.121-.24.157-.411.074s-.271-.244-.215-.366.239-.159.413-.076S9.221,35.041,9.161,35.162Z" fill="#161514"/>
  <path id="Path_12" data-name="Path 12" d="M10.131,36.263c-.114.108-.338.058-.489-.113a.377.377,0,0,1-.07-.506c.118-.108.334-.057.491.112S10.251,36.154,10.131,36.263Z" fill="#161514"/>
  <path id="Path_13" data-name="Path 13" d="M11.076,37.666c-.147.1-.387.006-.535-.21s-.147-.477,0-.581.385-.01.536.2S11.226,37.56,11.076,37.666Z" fill="#161514"/>
  <path id="Path_14" data-name="Path 14" d="M12.37,39.022c-.131.147-.411.108-.616-.093a.473.473,0,0,1-.136-.623c.133-.148.414-.106.62.093S12.51,38.876,12.37,39.022Z" fill="#161514"/>
  <path id="Path_15" data-name="Path 15" d="M14.155,39.809c-.058.191-.327.278-.6.2s-.448-.307-.394-.5.327-.282.6-.2S14.211,39.615,14.155,39.809Z" fill="#161514"/>
  <path id="Path_16" data-name="Path 16" d="M16.115,39.955c.007.2-.223.368-.508.371s-.518-.156-.521-.354.225-.368.511-.373S16.115,39.756,16.115,39.955Z" fill="#161514"/>
  <path id="Path_17" data-name="Path 17" d="M17.94,39.639c.034.2-.164.4-.447.451s-.535-.069-.571-.264.167-.4.445-.454S17.9,39.44,17.94,39.639Z" fill="#161514"/>
</svg>-->
<svg width="46" height="46" viewBox="0 0 48 48" fill="none" xmlns="http://www.w3.org/2000/svg">
<g clip-path="url(#clip0)">
<path d="M24 0C10.747 0 6.28456e-06 11.017 6.28456e-06 24.608C-0.0366837 29.7246 1.52522 34.725 4.46766 38.9111C7.4101 43.0972 11.5862 46.26 16.413 47.958C17.613 48.186 18.053 47.424 18.053 46.774C18.053 46.187 18.031 44.249 18.02 42.193C11.343 43.682 9.93401 39.293 9.93401 39.293C8.84201 36.449 7.26901 35.693 7.26901 35.693C5.09101 34.166 7.43301 34.193 7.43301 34.193C8.19945 34.3059 8.92975 34.5932 9.5676 35.0329C10.2055 35.4726 10.7338 36.0529 11.112 36.729C13.253 40.491 16.727 39.403 18.096 38.775C18.2004 37.5327 18.7402 36.3672 19.62 35.484C14.29 34.861 8.68601 32.751 8.68601 23.322C8.6495 20.889 9.5327 18.5319 11.159 16.722C10.4254 14.5977 10.5085 12.2764 11.392 10.21C11.392 10.21 13.407 9.549 17.992 12.732C21.9226 11.6279 26.0814 11.6279 30.012 12.732C34.593 9.548 36.605 10.21 36.605 10.21C37.4902 12.276 37.574 14.5976 36.84 16.722C38.4669 18.5314 39.3492 20.8891 39.31 23.322C39.31 32.773 33.696 34.854 28.351 35.464C28.9258 36.0676 29.3677 36.785 29.6481 37.5699C29.9285 38.3548 30.0413 39.1898 29.979 40.021C29.979 43.313 29.951 45.963 29.951 46.774C29.951 47.429 30.383 48.196 31.6 47.955C36.4241 46.2553 40.5973 43.0921 43.5373 38.9068C46.4773 34.7214 48.0375 29.7226 48 24.608C48 11.017 37.255 0 24 0Z" fill="white"/>
<path d="M9.161 35.162C9.108 35.283 8.921 35.319 8.75 35.236C8.579 35.153 8.479 34.992 8.535 34.87C8.591 34.748 8.774 34.711 8.948 34.794C9.122 34.877 9.221 35.041 9.161 35.162Z" fill="white"/>
<path d="M10.131 36.263C10.017 36.371 9.793 36.321 9.642 36.15C9.56896 36.0898 9.52121 36.0044 9.50824 35.9107C9.49527 35.8169 9.51803 35.7217 9.572 35.644C9.69 35.536 9.906 35.587 10.063 35.756C10.22 35.925 10.251 36.154 10.131 36.263Z" fill="white"/>
<path d="M11.076 37.666C10.929 37.766 10.689 37.672 10.541 37.456C10.393 37.24 10.394 36.979 10.541 36.875C10.688 36.771 10.926 36.865 11.077 37.075C11.228 37.285 11.226 37.56 11.076 37.666Z" fill="white"/>
<path d="M12.37 39.022C12.239 39.169 11.959 39.13 11.754 38.929C11.6577 38.8608 11.5904 38.7591 11.5652 38.6439C11.5401 38.5286 11.5589 38.4081 11.618 38.306C11.751 38.158 12.032 38.2 12.238 38.399C12.444 38.598 12.51 38.876 12.37 39.022Z" fill="white"/>
<path d="M14.155 39.809C14.097 40 13.828 40.087 13.555 40.009C13.282 39.931 13.107 39.702 13.161 39.509C13.215 39.316 13.488 39.227 13.761 39.309C14.034 39.391 14.211 39.615 14.155 39.809Z" fill="white"/>
<path d="M16.115 39.955C16.122 40.155 15.892 40.323 15.607 40.326C15.322 40.329 15.089 40.17 15.086 39.972C15.083 39.774 15.311 39.604 15.597 39.599C15.883 39.594 16.115 39.756 16.115 39.955Z" fill="white"/>
<path d="M17.94 39.639C17.974 39.839 17.776 40.039 17.493 40.09C17.21 40.141 16.958 40.021 16.922 39.826C16.886 39.631 17.089 39.426 17.367 39.372C17.645 39.318 17.9 39.44 17.94 39.639Z" fill="white"/>
</g>
<defs>
<clipPath id="clip0">
<rect width="48" height="48" fill="white"/>
</clipPath>
</defs>
</svg>
